<?xml version="1.0" encoding="UTF-8"?>
<svg id="Layer_2" data-name="Layer 2" xmlns="http://www.w3.org/2000/svg" viewBox="0 0 526.86 522.18">
  <defs>
    <style>
  .cls-1 {
    fill: currentColor;
    stroke-width: 0;
  }
</style>
  </defs>
  <g id="katman_1" data-name="katman 1">
    <g id="Layer_2-2" data-name="Layer 2">
      <g id="Layer_1-2" data-name="Layer 1-2">
        <path class="cls-1" d="m396.77,195.12c1.61,0,56.45.27,56.34.27,5.97,0,3.67,4.83,4.6-60.69,0-4.51-.4-5.02-5.01-5.05-65.4-.31-60.12,1.21-60.12-3.94V4.89c0-6.04,11.64-4.2-130.39-4.2,0-.8-126.22-.58-126.04-.58-7.37,0-4.83-8.66-4.33,126.3,0,5.65,3.86,3.72-62.38,3.9-1.18,0-1.95.16-2.48-.64-1.51-2.33-.76-12.88-.92-59.3,0-7,6.95-4.83-61.78-4.83-4.96,0-3.36-1.18-3.82,59.56-.05,5.1.24,5.36,5.31,5.36h55.83c.97,0,1.74-.21,2.35-.14,3.59.42,2,10.46,1.77,127.17,0,4.3,1.95,3.22,16.19,3.22,53.27,0,49.11-1.42,49.21,3.78,0,.8.34,116.11.34,121.54,0,4.14-.63,4.65-4.62,4.65-64.54,0-61.36-2.04-61.17,4.28.31,7.92-.1,24.02-.13,52.88,0,9.76-7.73,7.65,59.56,7.44,6.31,0,4.43,1.9,4.46,14.49.26,59.35-1.61,52.04,6.13,52.04,205.02.1,191.56,1.82,191.56-2.98,0-9.4.64-6.89.47-59.29,0-4.83-2.22-3.43,57.95-3.35,4.6,0,4.54-3.73,3.96,61.28,0,5.31-1.38,3.54,61.49,3.65,4.31,0,2.99,2.03,3.59-61.17,0-4.73-.37-5.1-5.18-5.14h-52.61c-5.86,0-3.83,3.61-3.98-60.03,0-5.22-.14-2.77,60.54-3.88,3.69,0,3.75-.19,3.75-3.83,0-66.23,1.74-61.35-4.01-61.33-67.46.19-60.56,1.61-60.56-4.35,0-136.68-2.04-126.17,4.1-126.29ZM59.85,84.85c-27.64-.69-23.29-.27-29.25-3.49-18.17-9.95-23.36-12.07-15.86-12.07,51.4.53,47.47-1.92,47.5,4.22.03,9.13.66,11.41-2.4,11.35Zm333.77,397.87h32.65l25.19,34.08h-57.84v-34.08ZM388.82,3.28c-2.69,7.97-6.55,14.62-13.23,30.59-4.46,10.66-7.55.29-220.2,4.83-5.09.1-4.09-.52-17.71-30.91-2.09-4.7-27.33-3.19,251.14-4.51Zm-239.69,262.52c0-2.78-1.08-4.04-3.65-5.02-8.21-3.22-7.28-1.74-5.28-9.79,40.24-163.15,35.95-151.83,40.76-150.58,223.59,57.5,203.91,47.75,201.36,57.87-55.05,218.46-47.26,199.95-53.91,198.27-194.09-48.79-179.18-41.44-179.09-49.39.26-21.51-.53-21.22-.19-41.37Zm-73.31-129.73c-2.88-1.84-2.16-1.75-1.75-2.4,59.45,0,58.05-1.61,62.3,3.53,9.66,11.57,12.35,10.95,6.02,11.03-55.54.56-42.34,3.49-66.56-12.15Zm22.67,259.4c32.55,0,32.87.87,35.99-3.22,12.07-16.1,13.91-15.63,14.02-21.51.26-16.45.9-51.13.9-52.56,4.72,1.14,161.51,42.32,175.7,45.97,5.54,1.42,2.62-1.09-29.51,109.13-1.18,4.01-3.4,3.22-13.84,3.22-144.88,0-132.93,2.43-132.97-4.04-.42-51.61.87-46.22-4.01-46.22-52.51,0-48.45,1.37-48.53-3.57-.43-27.62-1.37-27.2,2.24-27.2Zm32.87,53.43c-1.9,2.59-.14,2.06-56.23,1.8-.39-.09-.77-.24-1.13-.42,16.6-17.42,21.18-20.28,30.22-20.28.16,0,33.43,0,39.49.5-2.21,4.2-10.24,15.47-12.35,18.4Zm189.68,67.71c-200.54,0-188.87,2.69-186.49-2.66,14.07-31.42,12.88-31.28,17.19-31.28,176.14,0,163.05-2.35,164.85,4.35,8.5,31.89,8.77,29.59,4.44,29.59Zm62.36-65.81c-57.73.11-54.73,1.5-56.5-3.12-3.22-8.6-4.62-10.79-7.78-19.56,6.97-.5,12.27,0,47.7-.1,5.51,0,5.28,1.46,18.51,20.56.34.5.6,1.05,1.13,1.96-1.22.11-2.14.26-3.06.26Zm46.43-75.84c22.31,12.88,19.99,12.09,19.86,12.88-6.79.56,4.43,0-55.39.11-4.83,0-5.78-1.72-16.1-11.38-.53-.52-.98-1.14-1.8-2.09,3.04-.85,50.51-1.21,53.43.48Zm-52.54-227.14c1.21-1.48,13.26-15.05,18.98-15.02,2.74,0,49.9.37,53.12,1.21-4.83,3.73-15.07,10.51-18.66,12.88s-51.17,1.27-53.44.93Z"/>
        <path class="cls-1" d="m517.41,262.21c-62.3,0-60.58-1.72-60.49,4.01.9,63.46-.68,59.37,4.17,59.4,60.77.42,59.79,2.08,59.72-2.98-.71-61.98,2.53-60.43-3.4-60.43Zm-6.44,59.56c-3.38.39-44.57.19-44.46.19-4.83,0-5.12-.26-5.12-5.05s0-4.83,4.65-4.83c6.44,0,18.35-2.38,39.23,6.62,6.36,2.91,5.97,1.53,5.67,3.14l.03-.06Z"/>
        <path class="cls-1" d="m62.35,325.57H4.39c-6.26,0-3.83-8.16-4.33,61.8,0,5.22-2.56,3.36,62.17,3.33,3.3,0,3.75-.47,3.77-3.67.24-66.85,1.87-61.46-3.65-61.46Zm-3.57,61.35c-52.72,0-51.51.53-48.87-1.5,24.15-17.71,23.42-17.71,26.88-17.71,29.86-.58,25.08-3.4,24.94,16.1-.02,2,.55,3.11-2.95,3.11Z"/>
        <path class="cls-1" d="m189.19,299.78c21.67,5.1,22.2,6.21,23.07,2.21,5.23-24.47,4.49-24.5,7.53-23.65,43.85,12.15,45.91,9.21,44.38,14.68-6.29,22.44-6.18,23.37-3.91,24.07,20.14,6.13,21.09,6.44,21.78,3.12.5-2.37,18.56-74.37,18.54-74.24,1.03-4.2.69-3.83-19.69-8.05-2.95-.61-2.08-2.61-1.43-5.94,4.49-22.67,5.07-20.62-.1-21.88-21.15-5.15-42.85-10.72-43.99-10.74-6.44,22.54-3.22,25.64-9,24.15-18.91-5.05-18.9-5.97-19.96-1.75-20.48,81.2-20.81,77.17-17.22,78.02Z"/>
        <rect class="cls-1" x="287.61" y="166.33" width="51.46" height="48.63" transform="translate(55.64 451.64) rotate(-76.68)"/>
        <rect class="cls-1" x="478.23" y="187.68" width="48.63" height="51.46"/>
        <rect class="cls-1" x=".43" y="187.68" width="48.63" height="51.46"/>
        <rect class="cls-1" x="192.61" y="143.84" width="51.46" height="48.63" transform="translate(4.4 341.88) rotate(-76.68)"/>
      </g>
    </g>
  </g>
</svg>